<svg xmlns="http://www.w3.org/2000/svg" viewBox="0 0 256 65" enable-background="new 0 0 256 65"><style type="text/css">.st0{fill:#FFFFFF;}</style><path class="st0" d="M179.2 48.6l1.7-.1v.8c.5-.6 1.3-1 2-1 1.8 0 3.3 1.2 3.3 3.5s-1.6 3.5-3.3 3.5c-.7 0-1.3-.1-2-.8v3.3l-1.7.1v-9.3zm3.4 5.1c1.1 0 1.9-.8 1.9-1.9 0-1.1-.8-1.9-1.9-1.9-1 0-1.8.8-1.8 1.9 0 1.1.8 1.9 1.8 1.9zM187.3 42.9l1.7-.1v6.6c.4-.7 1-1 1.6-1 1.2 0 2.1.7 2.1 2v4.6l-1.7.1v-3.8c0-.9-.4-1.3-1.1-1.3-.6 0-1.1.6-1.1 1.5v3.5l-1.7.1v-12.2zM197.5 48.4c2 0 3.5 1.6 3.5 3.5s-1.5 3.5-3.5 3.5-3.5-1.6-3.5-3.5 1.5-3.5 3.5-3.5zm1.8 3.4c0-1.1-.8-1.9-1.8-1.9s-1.8.8-1.8 1.9c0 1.1.8 1.9 1.8 1.9s1.8-.8 1.8-1.9zM201.8 48.6h.6v-2.1l1.7-.8v2.9h1.4v1.5h-1.4v2.3c0 .9.4 1.2 1.1 1.2h.2v1.5h-.4c-1.6 0-2.7-.6-2.7-2.2v-2.9h-.6v-1.4zM209.7 48.4c2 0 3.5 1.6 3.5 3.5s-1.5 3.5-3.5 3.5-3.5-1.6-3.5-3.5 1.5-3.5 3.5-3.5zm1.8 3.4c0-1.1-.8-1.9-1.8-1.9s-1.8.8-1.8 1.9c0 1.1.8 1.9 1.8 1.9s1.8-.8 1.8-1.9zM215.1 55.3c.4.8 1 1.2 1.7 1.2.8 0 1.4-.6 1.4-1.3 0-.9-.8-1.4-1.6-1.4-.6 0-1.2.3-1.7.7l.4-1.2c-.8-.4-1.2-1.3-1.2-2.1 0-2 1.5-2.8 2.9-2.8l1 .1c.3.1.7.1 1 .1.4 0 .9 0 1.3-.1l-.2 1.1h-.6c.4.4.6 1 .6 1.5 0 .8-.3 1.5-1.1 2.1.7.6 1 1.3 1 2 0 1.7-1.4 2.8-3.1 2.8-1 0-1.9-.4-2.6-1.4l.8-1.3zm1.9-2.9c.8 0 1.3-.4 1.3-1.3 0-.8-.6-1.2-1.3-1.2-.8 0-1.4.4-1.4 1.2 0 .8.6 1.3 1.4 1.3zM223 48.5v.7c.4-.5 1-.8 1.8-.8v1.6h-.4c-1.1 0-1.5.5-1.5 1.6v3.4l-1.7.1v-6.5l1.8-.1zM228.8 50.7c0-.5-.3-.7-1.3-.7-.5 0-1 .1-1.6.2l.5-1.5c.5-.1 1-.1 1.5-.1 1.8 0 2.5.4 2.5 1.6v4.8l-1.5.1v-.7c-.2.6-.8.8-1.6.8-1.4 0-2.2-.9-2.2-2.4s1.1-2.3 2.2-2.3c.6 0 1.1.2 1.5.6v-.4zm-1 3.1c.6 0 1-.3 1-.9 0-.5-.4-.8-1-.8s-1 .3-1 .8c0 .6.4.9 1 .9zM232 48.6l1.7-.1v.8c.5-.6 1.3-1 2-1 1.8 0 3.3 1.2 3.3 3.5s-1.6 3.5-3.3 3.5c-.7 0-1.3-.1-2-.8v3.3l-1.7.1v-9.3zm3.5 5.1c1.1 0 1.9-.8 1.9-1.9 0-1.1-.8-1.9-1.9-1.9-1 0-1.8.8-1.8 1.9 0 1.1.8 1.9 1.8 1.9zM240.2 42.9l1.7-.1v6.6c.4-.7 1-1 1.6-1 1.2 0 2.1.7 2.1 2v4.6l-1.7.1v-3.8c0-.9-.4-1.3-1.1-1.3-.6 0-1.1.6-1.1 1.5v3.5l-1.7.1v-12.2zM246.2 48.7l1.7-.3 1.9 4.1 1.9-4.1 1.7.3-4.5 9.3-1.8-.1 1.7-3.4-2.6-5.8zM4.6 52.7c.4.8 1.3 1.4 2.2 1.4.7 0 1.4-.2 2.1-.7l.2 1.1c-.8.4-1.7.7-2.3.7-2.1 0-3.7-1.8-3.7-3.7s1.6-3.7 3.7-3.7c1.5 0 2.6.9 3.1 2l-5.3 2.9zm3.7-3.2c-.4-.5-.9-.6-1.5-.6-1.2 0-2.6 1-2.6 2.5v.4l4.1-2.3zM12.3 41.5v13.5l-1.2.2v-13.5l1.2-.2zM15.8 45.4l-1 1-1-1 1-1 1 1zm-1.6 2.8l1.2-.2v7l-1.2.2v-7zM17 49.2l.2-1.1h5.5l-4 5.9h3.9v1.1h-6l4-5.9h-3.6zM27.6 54.5c-.5.6-1.1.8-1.8.8-1.5 0-2.5-1.4-2.5-2.6 0-1.4 1.1-2.6 2.5-2.6.6 0 1.3.3 1.6.6v-.7c0-.7-.5-1.1-1.4-1.1-.4 0-.7 0-1 .1l.3-1c.2-.1.6-.1 1-.1 1.8 0 2.3.9 2.3 2.2v4.9l-.9.2v-.7zm-1.7-.3c1 0 1.5-.9 1.5-1.5s-.5-1.5-1.5-1.5-1.5.9-1.5 1.5.5 1.5 1.5 1.5zM31.2 41.5v7.5c.8-.8 1.6-1.2 2.5-1.2 2.2 0 3.7 1.8 3.7 3.7s-1.6 3.7-3.7 3.7-3.7-1.8-3.7-3.7v-9.9l1.2-.1zm2.6 12.7c1.5 0 2.5-1.2 2.5-2.6s-1.1-2.6-2.5-2.6c-1.5 0-2.5 1.2-2.5 2.6s1 2.6 2.5 2.6zM40.1 52.7c.4.8 1.3 1.4 2.2 1.4.7 0 1.4-.2 2.1-.7l.2 1.1c-.8.4-1.7.7-2.3.7-2.1 0-3.7-1.8-3.7-3.7s1.6-3.7 3.7-3.7c1.5 0 2.6.9 3.1 2l-5.3 2.9zm3.8-3.2c-.4-.5-.9-.6-1.5-.6-1.2 0-2.6 1-2.6 2.5v.4l4.1-2.3zM49 55h-.4c-1.4 0-2-.7-2-1.7v-4.2h-.5l.1-1h.4v-2.3l1.2-.2v2.5h1.6v1h-1.6v4.1c0 .5.2.8.9.8h.5l-.2 1zM50.5 41.7l1.2-.2v7.3c.4-.5 1.1-.9 1.9-.9 1.1 0 2.4.7 2.4 2.4v4.7l-1.2.2v-4.5c0-1-.5-1.7-1.4-1.7-1.1 0-1.7.9-1.7 1.9v4l-1.2.2v-13.4zM61.6 54.5c-.5.6-1.1.8-1.8.8-1.5 0-2.5-1.4-2.5-2.6 0-1.4 1.1-2.6 2.5-2.6.6 0 1.3.3 1.6.6v-.7c0-.7-.5-1.1-1.4-1.1-.4 0-.7 0-1 .1l.3-1c.2-.1.6-.1 1-.1 1.8 0 2.3.9 2.3 2.2v4.9l-.9.2v-.7zm-1.6-.3c1 0 1.5-.9 1.5-1.5s-.5-1.5-1.5-1.5-1.5.9-1.5 1.5.5 1.5 1.5 1.5zM64.6 48.2l1.1-.2v.8c.6-.6 1.2-.9 2.1-.9 1.6 0 2.7 1 2.7 2.6v4.5l-1.2.2v-4.1c0-1.2-.6-2-1.6-2-1.2 0-1.9.9-1.9 2.1v3.8l-1.2.2v-7zM78 54c-.6.7-1.6 1.2-2.4 1.2-1.9 0-3.5-1.7-3.5-3.7s1.6-3.7 3.5-3.7c.9 0 1.7.4 2.4 1.2v-7.4l1.2-.2v13.6l-1.2.2v-1.2zm-2.4.2c1.3 0 2.3-1.2 2.3-2.6s-1-2.6-2.3-2.6-2.3 1.2-2.3 2.6 1 2.6 2.3 2.6zM80.2 56.6c.6-.1.9-.5.9-1.6v-6.8l1.2-.2v7c0 1.4-.5 2.6-1.8 2.9l-.3-1.3zm2.4-11.2l-1 1-1-1 1-1 1 1zM87.8 54.5c-.5.6-1.1.8-1.8.8-1.5 0-2.5-1.4-2.5-2.6 0-1.4 1.1-2.6 2.5-2.6.6 0 1.3.3 1.6.6v-.7c0-.7-.5-1.1-1.4-1.1-.4 0-.7 0-1 .1l.3-1c.2-.1.6-.1 1-.1 1.8 0 2.3.9 2.3 2.2v4.9l-.9.2v-.7zm-1.6-.3c1 0 1.5-.9 1.5-1.5s-.5-1.5-1.5-1.5-1.5.9-1.5 1.5.5 1.5 1.5 1.5zM90.8 48.2l1.1-.2v.8c.6-.6 1.2-.9 2.1-.9 1.6 0 2.7 1 2.7 2.6v4.5l-1.2.2v-4.1c0-1.2-.6-2-1.6-2-1.2 0-1.9.9-1.9 2.1v3.8l-1.2.2v-7zM99.7 52.7c.4.8 1.3 1.4 2.2 1.4.7 0 1.4-.2 2.1-.7l.2 1.1c-.8.4-1.7.7-2.3.7-2.1 0-3.7-1.8-3.7-3.7s1.6-3.7 3.7-3.7c1.5 0 2.6.9 3.1 2l-5.3 2.9zm3.7-3.2c-.4-.5-.9-.6-1.5-.6-1.2 0-2.6 1-2.6 2.5v.4l4.1-2.3zM107.4 53.1l1.1 1.1-1.1 1.1-1.1-1.1 1.1-1.1zM116.1 54.6c-.8.4-1.7.7-2.3.7-2.1 0-3.7-1.8-3.7-3.7s1.6-3.7 3.7-3.7c.7 0 1.5.1 2.3.7l-.2 1.1c-.6-.4-1.3-.6-2.1-.6-1.5 0-2.5 1.2-2.5 2.6s1.1 2.6 2.5 2.6c.7 0 1.4-.2 2.1-.7l.2 1zM121.2 54.5c-.5.6-1.1.8-1.8.8-1.5 0-2.5-1.4-2.5-2.6 0-1.4 1.1-2.6 2.5-2.6.6 0 1.3.3 1.6.6v-.7c0-.7-.5-1.1-1.4-1.1-.4 0-.7 0-1 .1l.3-1c.2-.1.6-.1 1-.1 1.8 0 2.3.9 2.3 2.2v4.9l-.9.2v-.7zm-1.7-.3c1 0 1.5-.9 1.5-1.5s-.5-1.5-1.5-1.5-1.5.9-1.5 1.5.5 1.5 1.5 1.5zM201.7 8.4c-.5 2.2-2.6 4.6-4.7 4.1-1.7-.4-1.5-2.2-1.2-3.9.2-1.4-.3-2.5-1.7-2.6-2.6-.4-6.5 2-13.7 8.4-4.7 4.2-10.1 9.9-15.1 14.3 3 4.2 6.6 10.2 5 17.8-2 9.1-11.1 15.7-20.5 15.7-4.5 0-6.9-2.2-7.5-3.5-.5-1-.6-1.9-.3-2.1.4 0 .3.6 1 1.6 1 1.2 3 2.5 6.7 2.5 6.6 0 12.4-4.6 14.4-11.2 1.7-6.1.4-12.6-2.2-17.8-5.7 4.7-13 9.5-19.3 9.5-2.7 0-5.2-1.7-4.5-5.5.9-4.1 5.2-7.5 10.6-10.7 2.7-1.6 5.4-2.9 8-4.4-.6-2.2-1-5.1-.5-7.5.9-4.2 4.5-9.1 9.4-9.1 2.5 0 4.2 2.4 3 6.1-1.5 3.9-4.6 6.9-8.6 9.6 1 2.7 2.9 5.1 4.6 7.9l15-14.6c6.2-5.6 12-9.7 17.3-9.7 3.5 0 5.5 2.1 4.8 5.1m-40.6 22.1c-1.6-2.9-3.1-5.9-4.1-8.9-2.9 2-5.2 3.5-7.4 5.2-3.4 2.7-5.2 5.1-5.7 7.7-.5 2.4 1.2 3.2 2.9 3.2 3 .2 8.9-2.9 14.3-7.2m-1.9-17.5c-.4 2-.2 3.9.4 5.7 3.2-2.4 6.2-5.2 7.5-8.7.7-2.2 0-4-1.9-4-2.6.1-5.3 3.4-6 7"/><path class="st0" d="M5.3 27.9c.7 1.6 3 4.1 6.3 4.1 2.6 0 4.8-1.3 6.7-2.9v2.5c-1.5 1.5-4.3 2.4-6.5 2.4-5.5 0-9.2-4.1-9.2-9.5s4-9.1 9.3-9.1c3.3 0 5.9 2.1 7 4.1l-13.6 8.4zm10.3-8.9c-.8-.9-2.2-1.6-3.8-1.6-4.2 0-7.2 3.1-7.2 7.1 0 .5 0 1 .1 1.4l10.9-6.9zM24.4 33.6l-2.1.4v-25.6l2.1-.4zM48 17.9h-11.1l.5-2h14.7l-12.7 15.7h12.6l-.5 2h-16.1zM55.9 16.5c1.6-.7 3.4-1.1 5.2-1.1 2.8 0 5.6 1.4 5.6 4.5v13.7l-2.1.4v-2.2h-.1c-.7 1.3-2.3 2.2-4.4 2.2-3.6 0-6.8-2.3-6.8-6.2 0-3.9 2.6-6.7 6.5-6.7 1.8 0 3.5 1 4.7 2.1v-3c0-1.5-1.8-2.7-4.2-2.7-1.7 0-3.6.9-5.2 1.4l.8-2.4zm4.4 15.5c2.5 0 4.3-1.9 4.3-4.4 0-2.6-1.8-4.4-4.4-4.4-2.7 0-4.8 1.8-4.8 4.7.1 2.6 2.6 4.1 4.9 4.1M70.5 8.4l2-.4v11.2c2.1-2.4 4.6-3.8 7.7-3.8 4.9 0 8.9 3.5 8.9 9.1 0 5.2-4 9.5-9.2 9.5-5.9 0-9.4-3.9-9.4-9.7v-15.9zm9.4 23.6c4.2 0 7-3.1 7.1-7.2 0-4.2-3-7.3-7.3-7.3-4.1 0-7.3 3.1-7.3 7.4.1 4.2 3.5 7.1 7.5 7.1"/><path class="st0" d="M93.8 27.9c.7 1.6 3 4.1 6.3 4.1 2.6 0 4.8-1.3 6.7-2.9v2.5c-1.6 1.6-4.4 2.5-6.6 2.5-5.5 0-9.2-4.1-9.2-9.5s4-9.1 9.3-9.1c3.3 0 5.9 2.1 7 4.1l-13.5 8.3zm10.3-8.9c-.8-.9-2.2-1.6-3.8-1.6-4.2 0-7.2 3.1-7.2 7.1 0 .5 0 1 .1 1.4l10.9-6.9zM110.4 11.5l2.1-1.1v5.5h4.8v2.1h-4.8v11c0 2.2.9 3 3.2 3 .6 0 1.1 0 1.7-.1v1.9c-.6.1-1.2.2-1.8.2-3.3 0-5.1-1.9-5.1-5.1v-11h-2.4l.5-2.1h1.9v-4.3zM119.6 33.9v-25.5l2.1-.4v10h.1c1-1.6 3-2.6 5.1-2.6 3.4 0 6.6 1.3 6.6 6.3v11.9l-2 .3v-12.7c0-2.6-1.7-4-4.5-4-1.9 0-5.3 1.4-5.3 4.8v11.5l-2.1.4zM200 15.4v18.4c0 4.5-2.5 6.3-6.8 6.3l-.7-2.2c.4.1.8.1 1.3.1 3.2 0 4.2-1.6 4.2-6v-16.1l2-.5zm.5-5.6l-1.6 1.8-1.6-1.8 1.6-1.8 1.6 1.8zM206 16.5c1.6-.7 3.4-1.1 5.2-1.1 2.8 0 5.6 1.4 5.6 4.5v13.7l-2.1.4v-2.2h-.1c-.7 1.3-2.3 2.2-4.4 2.2-3.6 0-6.8-2.3-6.8-6.2 0-3.9 2.6-6.7 6.5-6.7 1.8 0 3.5 1 4.7 2.1v-3c0-1.5-1.8-2.7-4.2-2.7-1.7 0-3.6.9-5.2 1.4l.8-2.4zm4.4 15.5c2.5 0 4.3-1.9 4.3-4.4 0-2.6-1.8-4.4-4.4-4.4-2.7 0-4.8 1.8-4.8 4.7 0 2.6 2.5 4.1 4.9 4.1"/><path class="st0" d="M220.6 33.9v-18l2.1-.4v2.9h.1c1-1.6 3-2.9 5.1-2.9 3.4 0 6.6 1.3 6.6 6.3v11.9l-2.1.3v-12.8c0-2.6-1.7-4-4.5-4-1.9 0-5.3 1.4-5.3 4.8v11.5l-2 .4zM239.9 27.9c.7 1.6 3 4.1 6.3 4.1 2.6 0 4.8-1.3 6.7-2.9v2.5c-1.6 1.6-4.4 2.5-6.6 2.5-5.5 0-9.2-4.1-9.2-9.5s4-9.1 9.3-9.1c3.3 0 5.9 2.1 7 4.1l-13.5 8.3zm10.3-8.9c-.8-.9-2.2-1.6-3.8-1.6-4.2 0-7.2 3.1-7.2 7.1 0 .5 0 1 .1 1.4l10.9-6.9zM30.2 34.2v-18.5l2.1-.4v18.5zM33.1 10.2c0 1-.8 1.8-1.8 1.8s-1.8-.8-1.8-1.8.8-1.8 1.8-1.8 1.8.8 1.8 1.8"/></svg>
