<svg xmlns="http://www.w3.org/2000/svg" viewBox="0 0 960 165.3" enable-background="new 0 0 960 165.3"><style type="text/css">.st0{fill:#FFFFFF;}</style><path class="st0" d="M99.6 74.2c28.3 5.8 19.2 67 51.3 67 7.8 0 14.7-4.7 18.7-14.3 1.4 0 2.6.7 2.6 1.6 0 17.7-22.1 30.8-38.3 30.8-39.9 0-18.7-82.1-48-82.1.7-3 1.1-4 3.2-4.3 16.5-2.7 26.1-17.6 26.1-30.9 0-7.8-3.4-15.2-10.7-19.2-3.3 2.3-5.8 7.1-7.4 11.9-10 30.6-21 88.7-55.6 88.7-10 0-19.6-4.3-19.6-15.9 0-7.7 5.9-11.5 11.3-11.5 4.5 0 8.6 2.7 8.6 8.1 0 6.3-4.8 10.7-10.4 12.5 2.1 1.8 4.7 2.6 7.4 2.6 20.9 0 28.8-59.3 39.9-84.6 3.6-8 11.4-12.2 18.1-14.3-1.8-.3-3.7-.5-5.8-.5-18.3 0-40.6 14.7-40.6 37.1 0 8.2 3.8 18.7 12.8 21.4-1.4 3.3-3.8 4.8-6.5 4.8-10.3 0-13.3-14.6-13.3-22.8 0-28.8 29.4-45.4 54-45.4 24.8 0 35.8 12.1 35.8 25.4-.1 14.2-12.5 29.5-33.6 33.9zM151.6 96.5c-.4 2.7-.7 5.4-.7 7.7 0 7.3 2.3 12.5 8.4 12.5 8 0 17.3-15.7 20.6-22.1 1.6 0 2.2.8 2.2 2.1 0 4.4-5.6 15.5-13.5 21.6-4.8 3.8-10.4 5.8-15.8 5.8-10.4 0-19.8-7.4-19.8-22.5 0-26.9 23.2-46 38.7-46 9.3 0 13.5 5.9 13.5 13.2 0 12.1-11.3 28.1-29 28.1-1.4-.2-3.1-.3-4.6-.4zm.6-3.2h1.2c13.6 0 19.2-18.9 19.2-29.2 0-2.1-1.4-3-3.3-3-5.3-.1-13.8 17-17.1 32.2zM232.6 57.7c3.3 2.1 5.4 5.5 5.4 10.4 0 7.7-5.9 11.5-11.3 11.5-4.5 0-8.6-2.7-8.6-8.1 0-4.4 2.3-8.6 5.6-12.5h-1.2c-7.7 0-12.1 4-12.1 9.2 0 13 21 19.1 21 34.7 0 13.2-15.1 21.6-28.7 21.6-11.1 0-21.1-5.6-21.1-18.8 0-8.2 4.4-15.8 12.5-15.8 2.2 0 4.4.8 6.2 3.2-6 3-8.9 8.5-8.9 13.6 0 8.5 6 12.6 12.2 12.6 6.2 0 12.5-4.3 12.5-12.1 0-9.1-20.6-18.7-20.6-31.2 0-12.1 15.5-20.7 27.7-20.7 1.4 0 2.7.1 4 .4 6.2-5.5 13.7-9.1 17.3-9.1 1.2 0 2.1.5 2.1 2.2-3.4 1.8-9.3 5.1-14 8.9zM285.6 58.2c3.3 1.9 5.8 5.1 5.8 10 0 7.7-5.9 11.5-11.3 11.5-4.5 0-8.6-2.7-8.6-8.1 0-4.4 2.3-8.6 5.6-12.5h-1.2c-8.9 0-18.5 25.7-18.5 42.4 0 8.1 2.2 14 7.8 14 8 0 16.2-14.6 19.5-21 1.6 0 2.2.8 2.2 2.1 0 4.4-5.6 15.5-13.5 21.6-4.8 3.7-10.3 5.6-15.5 5.6-14.3 0-20.2-9.6-20.2-21.7 0-19.9 16.5-46.3 39.5-46.3.8 0 1.9.1 2.9.3 6.3-5.5 14.1-9.3 17.7-9.3 1.2 0 2.1.5 2.1 2.2-3.4 1.6-9.5 5.2-14.3 9.2zM350 141.2c-1.4 0-3-1.1-5.2-3-10-9.3-13.7-21.1-13.7-33.8 0-3 .1-6.2.5-9.3-10.3 21.3-19.1 27.6-25.7 27.6-7.4 0-11.1-3.4-11.1-8.8 0-9.5 11.5-43.5 11.5-48.2-4.5.4-10.3 8-12.4 12.5-1 0-2.2-.5-2.2-2.1 0-5.6 11.5-19.6 23.2-19.6 4.4 0 9.2 2.3 9.2 7.7 0 8.8-10.7 39.8-10.7 45.7 0 1.5.5 2.2 1.6 2.2 3.8 0 15.1-20 20.7-35.4 1.2-4.3 2.7-8.5 4.4-12.6 2.1-5.4 6.5-7.6 11.5-7.6 2.6 0 5.4.5 8 1.5-7.4 21-15 42.6-15 59 0 9.1 2.3 16.6 8.1 21.7-.6 1.8-1.5 2.5-2.7 2.5zM377.3 96.5c-.4 2.7-.7 5.4-.7 7.7 0 7.3 2.3 12.5 8.4 12.5 8 0 17.3-15.7 20.6-22.1 1.6 0 2.2.8 2.2 2.1 0 4.4-5.6 15.5-13.5 21.6-4.8 3.8-10.4 5.8-15.8 5.8-10.4 0-19.8-7.4-19.8-22.5 0-26.9 23.2-46 38.7-46 9.3 0 13.5 5.9 13.5 13.2 0 12.1-11.3 28.1-29 28.1-1.4-.2-3.1-.3-4.6-.4zm.6-3.2h1.2c13.6 0 19.2-18.9 19.2-29.2 0-2.1-1.4-3-3.3-3-5.3-.1-13.8 17-17.1 32.2zM518.7 15.7c5.4-2.5 11.3-4.1 17.6-4.1 1.2 0 2.3 1.1 2.3 2.7-4.4.4-8.4 1.8-11.8 4 10 4.5 16.2 13.5 16.2 24.2 0 21.4-20.9 40.5-42.3 40.5-1.5 0-1.8-.1-2.5-2.1 13.6-2.2 28.1-19.5 28.1-34.5 0-7.8-2.5-15.9-8-21.1-7.4 8.2-11.5 18.5-12.2 21.1-6.7 22.8-20 78-41.9 90.3-4.1 2.3-10.2 3.8-16.1 3.8-10 0-19.6-4.3-19.6-15.9 0-7.7 5.9-11.5 11.3-11.5 4.5 0 8.6 2.7 8.6 8.1 0 6.3-4.8 10.7-10.4 12.5 2.1 1.8 4.7 2.6 7.4 2.6 24.3 0 31.6-70.8 42.6-90.9 3.6-6.5 11.4-17.2 22.1-24.8-1.9-.5-4-.8-6.3-.8-18.3 0-40.6 14.7-40.6 37.1 0 8.2 3.8 18.7 12.8 21.4-1.4 3.3-3.8 4.8-6.5 4.8-10.3 0-13.3-14.6-13.3-22.8 0-28.8 29.4-45.4 54-45.4 3 0 5.9.3 8.5.8zM580.1 141.2c-1.4 0-3-1.1-5.2-3-9.7-9.2-13.6-20.5-13.7-32.8-5.8 10.7-12.4 18.4-20.5 18.4-11 0-15.4-7.8-15.4-18.1 0-19.8 16.5-48.5 35.4-48.5 3.6 0 6.9.5 10.6 4.8 2.3-3.8 6.2-5.5 10.6-5.5 2.6 0 5.4.5 8 1.5-7.4 21-15 42.6-15 59 0 9.1 2.3 16.6 8.1 21.7-.9 1.8-1.7 2.5-2.9 2.5zm-18.6-44.2c1.1-10.2 4.1-20.7 8.1-31-2.1-1.9-4.1-3-6-3-9.7 0-18.9 30.5-18.9 44.8 0 4.4.8 7.3 2.9 7.3 3.8-.1 10.5-7.2 13.9-18.1zM631.6 58c2.1-.3 4-.4 5.6-.4 6.7 0 10.4 2.3 10.4 6.6 0 9.5-11.4 43.4-11.4 48.6 0 3.4 1.6 4.9 4.1 4.9 11.1 0 28.1-25.5 29.2-46.8-2.2 3.4-6.3 5.1-10 5.1-6 0-8.6-3.6-8.6-7.8 0-6.2 5.5-13.7 13.3-13.7 5.8 0 11.3 4 11.3 12.2 0 26.1-18.7 57.4-41.6 57.4-7.4 0-14.3-3.6-14.6-13.2-4.5 8.4-9.1 13.2-17.2 13.2-7.5 0-14.6-3.7-14.6-13.9 0-7.3 10.4-36.8 10.4-47 0-11.7-6.7-19.1-16.2-21.1.1-1.4 1.2-3 3.4-3 15.1 0 28.8 11.7 28.8 25.4 0 11.8-9.6 41.7-9.6 48.3 0 2.9.7 4.4 2.2 4.4 6.6 0 13.9-16.3 15.5-21.4 3.8-14.2 9.3-33.5 9.6-37.8zM691.1 63.2h-11.7c-.8 0-1.4-1-1.4-2.1 0-1 .3-1.9 1.2-2.7 7.5-1.1 15-2.3 20.2-6.6 5.1-4.1 7.8-8.9 9.7-12.2 1-1.6 1.8-4.1 3.7-4.1.8 0 1.8.4 2.3 1-1.2 5.6-3 13.3-5.2 21.7h8.8c1.5 0 2.2.8 2.2 1.8 0 1.5-1.5 3.3-4.3 3.3h-8.1c-1.2 4.8-2.6 9.6-4 14.4-4 13.7-7.6 28.6-7.6 39.4 0 9.1 2.3 16.6 8.1 21.7-.8 1.8-1.6 2.5-2.9 2.5-1.4 0-3-1.1-5.2-3-9.9-9.2-13.2-20.6-13.2-32.9.3-12.9 3.6-27.9 7.4-42.2zM813.2 33c0 7.7-5.9 11.5-11.3 11.5-4.5 0-8.6-2.7-8.6-8.1 0-5.6 3-9.3 6.6-12.2-.7-.3-1.5-.3-2.2-.3-23.3 0-50.9 47.2-56.4 75.9-1.5 8.2-3.6 15.5-4.4 20.2-2.3 1.2-7.4 2.7-10.7 2.7-3.6 0-6.3-1.6-6.3-6.9 0-9.5 11.4-45.6 11.4-50.2-4.5.4-10.3 8-12.4 12.5-1 0-2.2-.5-2.2-2.1 0-5.6 11.5-19.6 23.2-19.6 4.4 0 9.2 2.3 9.2 7.7 0 .7 0 1.2-.1 1.9 10.4-19.5 29-46 49.4-46 10.5.1 14.8 5.2 14.8 13zM809.1 141.2c-1.4 0-3-1.1-5.2-3-9.7-9.2-13.6-20.5-13.7-32.8-5.8 10.7-12.4 18.4-20.5 18.4-11 0-15.4-7.8-15.4-18.1 0-19.8 16.5-48.5 35.4-48.5 3.6 0 6.9.5 10.6 4.8 2.3-3.8 6.2-5.5 10.6-5.5 2.6 0 5.4.5 8 1.5-7.4 21-15 42.6-15 59 0 9.1 2.3 16.6 8.1 21.7-.9 1.8-1.7 2.5-2.9 2.5zm-18.6-44.2c1.1-10.2 4.1-20.7 8.1-31-2.1-1.9-4.1-3-6-3-9.7 0-18.9 30.5-18.9 44.8 0 4.4.8 7.3 2.9 7.3 3.8-.1 10.5-7.2 13.9-18.1zM838.2 116.4c6.3-1.5 14.8-15.1 17.6-20.9 1.6 0 2.2.8 2.2 2.1 0 6.3-11.9 26.4-24.8 26.4-6.7 0-11.5-4-11.5-10 0-9.5 11.5-43.5 11.5-48.2-4.5.4-10.3 8-12.4 12.5-1 0-2.2-.5-2.2-2.1 0-5.6 11.5-19.6 23.2-19.6 4.4 0 9.2 2.3 9.2 7.7-.1 9.4-11.2 40.8-12.8 52.1zm22.2-53.2c-.8 0-1.4-1-1.4-2.1 0-1 .3-1.9 1.2-2.7 7.6-1.1 15-2.3 20.2-6.6 7.6-6.2 13.2-16.3 13.2-25.4-.1-11.9-9.7-17.3-20.5-17.3-10.6 0-22.1 5.4-25.7 14.7 1.8-1.2 3.2-1.5 5.8-1.5 5.9 0 8.6 4.3 8.6 9.1 0 6.2-4.4 13.2-12.1 13.2-5.9 0-8.6-4.3-8.6-9.1 0-19.1 15.9-29.5 31.3-29.5 17.7 0 24.6 9.6 24.6 22.2 0 2.6-.3 5.4-.8 8.2-1.2 5.6-3 13.3-5.2 21.7h8.8c1.5 0 2.2.8 2.2 1.8 0 1.5-1.5 3.3-4.3 3.3h-8.1c-1.2 4.8-2.6 9.6-4 14.4-4 13.7-7.6 28.6-7.6 39.4 0 9.1 2.3 16.6 8.1 21.7-.8 1.8-1.6 2.5-2.9 2.5-1.4 0-3-1.1-5.2-3-9.9-9.2-13.2-20.6-13.2-32.9 0-12.8 3.3-27.7 7.1-42h-11.5zM887 131.1c0-2.9 1-5.9 2.7-8.4-6.9 2.9-10.7 8.6-10.7 13.9 0 8.8 7.4 13.5 15.5 13.5 9.7 0 20.5-6.9 20.5-22.2 0-19.9-19.4-32.5-19.4-51.6 0-12.1 15.5-20.7 27.7-20.7 8.1 0 14.8 3.7 14.8 12.8 0 7.7-5.9 11.5-11.3 11.5-4.5 0-8.6-2.7-8.6-8.1 0-5.6 3-9.3 6.6-12.2-.7-.3-1.5-.3-2.2-.3-7.7 0-12.1 4-12.1 9.2 0 13.5 19.1 34.2 19.1 49.8 0 24.3-18.9 35.6-34.5 35.6-10.7 0-19.8-5.4-19.8-15.5 0-12.9 12.4-20.5 21.8-20.5 5.8 0 10.4 2.9 10.4 9.2 0 6.2-4.4 13.2-12.1 13.2-5.6-.2-8.4-4.4-8.4-9.2z"/></svg>